<svg width="120" height="120" viewBox="0 0 120 120" fill="none" xmlns="http://www.w3.org/2000/svg">
<g clip-path="url(#clip0)">
<path d="M59.9996 0C26.8637 0 0.000999451 26.8635 0.000999451 59.9994C0.000999451 93.1345 26.8637 120 59.9996 120C93.1355 120 120 93.1345 120 59.9994C120 26.8635 93.1355 0 59.9996 0ZM60.0008 21.0746L95.5063 43.2148H24.4952L60.0008 21.0746ZM95.9487 78.57H95.9451C95.9451 82.1212 93.0671 84.9988 89.5163 84.9988H30.4853C26.9341 84.9988 24.0564 82.1208 24.0564 78.57V44.6236C24.0564 44.248 24.0948 43.8828 24.1572 43.524L58.0808 64.6774C58.1224 64.7034 58.1668 64.721 58.2096 64.745C58.2544 64.7698 58.3 64.7938 58.3456 64.8166C58.5852 64.9402 58.832 65.0399 59.0844 65.1051C59.1104 65.1123 59.1364 65.1155 59.1624 65.1215C59.4392 65.1867 59.7196 65.2275 59.9996 65.2275H60.0016C60.0036 65.2275 60.0056 65.2275 60.0056 65.2275C60.2856 65.2275 60.566 65.1879 60.8428 65.1215C60.8688 65.1151 60.8948 65.1123 60.9208 65.1051C61.1728 65.0399 61.4188 64.9402 61.6596 64.8166C61.7052 64.7938 61.7508 64.7698 61.7956 64.745C61.838 64.721 61.8828 64.7034 61.9244 64.6774L95.8479 43.524C95.9103 43.8828 95.9487 44.2472 95.9487 44.6236V78.57Z" fill="#00BFD8"/>
</g>
<defs>
<clipPath id="clip0">
<rect width="120" height="120" fill="white"/>
</clipPath>
</defs>
</svg>
