<svg width="144" height="34" xmlns="http://www.w3.org/2000/svg">

 <g>
  <title>background</title>
  <rect fill="none" id="canvas_background" height="402" width="582" y="-1" x="-1"/>
 </g>
 <g>
  <title>Layer 1</title>
  <circle id="svg_2" fill="#00BFD8" r="13.5" cy="17.5" cx="13.5"/>
  <path id="svg_3" fill="white" d="m6.36133,19.4856c-0.19258,0 -0.37852,-0.0532 -0.54453,-0.1528l-0.61758,-0.3719l0,5.7276l2.24121,0l0,-5.8238l-0.36523,0.3386c-0.19258,0.1826 -0.44825,0.2823 -0.71387,0.2823z"/>
  <path id="svg_4" fill="white" d="m9.75467,16.7164l0,7.9754l2.24453,0l0,-8.2045l-1.1521,-0.7869l-1.09243,1.016z"/>
  <path id="svg_5" fill="white" d="m14.6355,18.0678c-0.2125,0 -0.4183,-0.0631 -0.5943,-0.1827l-0.4416,-0.3021l0,7.1055l2.2412,0l0,-7.328l-0.5146,0.4516c-0.1926,0.166 -0.4383,0.2557 -0.6907,0.2557z"/>
  <path id="svg_6" fill="white" d="m17.5674,24.6918l2.2412,0l0,-10.7777l-2.2412,1.949l0,8.8287z"/>
  <path id="svg_7" fill="white" d="m18.3174,10.301l0.9263,0.8998l-4.655,4.0209l-3.4897,-2.384c-0.2424,-0.166 -0.5711,-0.1428 -0.7869,0.0598l-4.03749,3.7519l-1.07246,-0.6508l0,1.4742l0.8334,0.5014c0.24238,0.1461 0.54785,0.1129 0.75703,-0.0797l4.01422,-3.732l3.4731,2.374c0.2357,0.1627 0.5545,0.1428 0.7703,-0.0431l5.1033,-4.4127l0.7637,0.7404l0.8832,-3.5129l-3.483,0.9928z"/>
  <text font-style="normal" opacity="0.78" font-weight="bold" xml:space="preserve" text-anchor="start" font-family="Oswald, sans-serif" font-size="32" id="svg_8" y="27" x="34" fill-opacity="null" stroke-opacity="null" stroke-width="0" stroke="null" fill="#000000">zaac.ru</text>
 </g>
</svg>