<svg width="120" height="120" viewBox="0 0 120 120" fill="none" xmlns="http://www.w3.org/2000/svg">
<path d="M60 120C93.1371 120 120 93.1371 120 60C120 26.8629 93.1371 0 60 0C26.8629 0 0 26.8629 0 60C0 93.1371 26.8629 120 60 120Z" fill="#00BFD8"/>
<path d="M27.455 58.7L85.305 36.395C87.99 35.425 90.335 37.05 89.465 41.11L89.47 41.105L79.62 87.51C78.89 90.8 76.935 91.6 74.2 90.05L59.2 78.995L51.965 85.965C51.165 86.765 50.49 87.44 48.94 87.44L50.005 72.175L77.805 47.06C79.015 45.995 77.535 45.395 75.94 46.455L41.585 68.085L26.775 63.465C23.56 62.445 23.49 60.25 27.455 58.7V58.7Z" fill="white"/>
</svg>
